<svg width="53" height="35" viewBox="0 0 53 35" fill="none" xmlns="http://www.w3.org/2000/svg">
<mask id="path-1-inside-1" fill="white">
<path d="M28.1589 18.617C31.4342 18.617 34.1139 22.0596 34.1139 22.9203C34.1139 23.7809 31.4342 26.6498 28.1589 26.6498C24.8836 26.6498 22.5016 22.9203 22.5016 22.9203C22.5016 22.9203 24.8836 18.617 28.1589 18.617Z"/>
<path d="M52.9845 33.2945L49.6578 10.8874C49.5486 10.1515 48.8936 9.60442 48.1209 9.60442H44.0462C43.3296 6.50892 40.5072 5.59213 40.1959 5.49252C38.6682 2.54449 35.5251 2.40752 35.1875 2.39624C33.323 0.459552 30.814 0.450213 29.4768 0.780971C28.2867 0.0992209 25.8768 -0.567743 23.523 0.780971C22.1854 0.450213 19.6759 0.459941 17.8119 2.39624C17.4779 2.40752 14.3303 2.54449 12.8035 5.49291C12.4869 5.59408 9.66771 6.51514 8.95321 9.60442H4.8789C4.10618 9.60442 3.45112 10.1515 3.34194 10.8874L0.0156993 33.2945C-0.0481892 33.7233 0.0848443 34.1575 0.379621 34.4848C0.674397 34.8121 1.10261 35 1.55266 35H51.4471C51.8972 35 52.325 34.8121 52.6201 34.4848C52.9149 34.1575 53.048 33.7233 52.9845 33.2945ZM13.5379 7.1035C14.1695 7.0319 14.6916 6.59685 14.8561 6.00577C15.1691 4.87964 17.1859 4.07726 18.2821 4.25587C18.9109 4.3586 19.5409 4.08076 19.8704 3.55583C20.4624 2.61375 22.0511 2.15614 23.0891 2.64566C23.6625 2.9161 24.3495 2.82116 24.8206 2.40635C25.6661 1.66195 27.3308 1.65922 28.1796 2.40635C28.6507 2.82116 29.3373 2.9161 29.911 2.64566C30.9345 2.16314 33.1244 2.60013 33.7248 3.55583C34.0548 4.08115 34.6848 4.35821 35.3135 4.25587C36.4292 4.07337 38.4318 4.8987 38.7395 6.00577C38.9037 6.59685 39.4261 7.0319 40.0573 7.1035C40.2078 7.12062 41.3315 8.46155 41.9554 9.60481H11.044C11.6141 8.55884 13.233 7.13813 13.5379 7.1035ZM1.55623 33.7328L5.03481 10.8716H47.965L51.4435 33.7328H1.55623Z"/>
<path d="M13.5379 7.1035C14.1695 7.0319 14.6916 6.59685 14.8561 6.00577C15.1691 4.87964 17.1859 4.07726 18.2821 4.25587C18.9109 4.3586 19.5409 4.08076 19.8704 3.55583C20.4624 2.61375 22.0511 2.15614 23.0891 2.64566C23.6625 2.9161 24.3495 2.82116 24.8206 2.40635C25.6661 1.66195 27.3308 1.65922 28.1796 2.40635C28.6507 2.82116 29.3373 2.9161 29.911 2.64566C30.9345 2.16314 33.1244 2.60013 33.7248 3.55583C34.0548 4.08115 34.6848 4.35821 35.3135 4.25587C36.4292 4.07337 38.4318 4.8987 38.7395 6.00577C38.9037 6.59685 39.4261 7.0319 40.0573 7.1035C40.2078 7.12062 41.3315 8.46155 41.9554 9.60481H11.044C11.6141 8.55884 13.233 7.13813 13.5379 7.1035Z"/>
</mask>
<path d="M28.1589 18.617C31.4342 18.617 34.1139 22.0596 34.1139 22.9203C34.1139 23.7809 31.4342 26.6498 28.1589 26.6498C24.8836 26.6498 22.5016 22.9203 22.5016 22.9203C22.5016 22.9203 24.8836 18.617 28.1589 18.617Z" fill="#FFFDFB"/>
<path d="M52.9845 33.2945L49.6578 10.8874C49.5486 10.1515 48.8936 9.60442 48.1209 9.60442H44.0462C43.3296 6.50892 40.5072 5.59213 40.1959 5.49252C38.6682 2.54449 35.5251 2.40752 35.1875 2.39624C33.323 0.459552 30.814 0.450213 29.4768 0.780971C28.2867 0.0992209 25.8768 -0.567743 23.523 0.780971C22.1854 0.450213 19.6759 0.459941 17.8119 2.39624C17.4779 2.40752 14.3303 2.54449 12.8035 5.49291C12.4869 5.59408 9.66771 6.51514 8.95321 9.60442H4.8789C4.10618 9.60442 3.45112 10.1515 3.34194 10.8874L0.0156993 33.2945C-0.0481892 33.7233 0.0848443 34.1575 0.379621 34.4848C0.674397 34.8121 1.10261 35 1.55266 35H51.4471C51.8972 35 52.325 34.8121 52.6201 34.4848C52.9149 34.1575 53.048 33.7233 52.9845 33.2945ZM13.5379 7.1035C14.1695 7.0319 14.6916 6.59685 14.8561 6.00577C15.1691 4.87964 17.1859 4.07726 18.2821 4.25587C18.9109 4.3586 19.5409 4.08076 19.8704 3.55583C20.4624 2.61375 22.0511 2.15614 23.0891 2.64566C23.6625 2.9161 24.3495 2.82116 24.8206 2.40635C25.6661 1.66195 27.3308 1.65922 28.1796 2.40635C28.6507 2.82116 29.3373 2.9161 29.911 2.64566C30.9345 2.16314 33.1244 2.60013 33.7248 3.55583C34.0548 4.08115 34.6848 4.35821 35.3135 4.25587C36.4292 4.07337 38.4318 4.8987 38.7395 6.00577C38.9037 6.59685 39.4261 7.0319 40.0573 7.1035C40.2078 7.12062 41.3315 8.46155 41.9554 9.60481H11.044C11.6141 8.55884 13.233 7.13813 13.5379 7.1035ZM1.55623 33.7328L5.03481 10.8716H47.965L51.4435 33.7328H1.55623Z" fill="#FFFDFB"/>
<path d="M13.5379 7.1035C14.1695 7.0319 14.6916 6.59685 14.8561 6.00577C15.1691 4.87964 17.1859 4.07726 18.2821 4.25587C18.9109 4.3586 19.5409 4.08076 19.8704 3.55583C20.4624 2.61375 22.0511 2.15614 23.0891 2.64566C23.6625 2.9161 24.3495 2.82116 24.8206 2.40635C25.6661 1.66195 27.3308 1.65922 28.1796 2.40635C28.6507 2.82116 29.3373 2.9161 29.911 2.64566C30.9345 2.16314 33.1244 2.60013 33.7248 3.55583C34.0548 4.08115 34.6848 4.35821 35.3135 4.25587C36.4292 4.07337 38.4318 4.8987 38.7395 6.00577C38.9037 6.59685 39.4261 7.0319 40.0573 7.1035C40.2078 7.12062 41.3315 8.46155 41.9554 9.60481H11.044C11.6141 8.55884 13.233 7.13813 13.5379 7.1035Z" fill="#FFFDFB"/>
<path d="M19.2755 19.1176C19.0766 18.926 18.7601 18.9319 18.5685 19.1307C18.3769 19.3296 18.3828 19.6461 18.5816 19.8377L19.2755 19.1176ZM22.5016 22.9203L22.8485 23.2803C22.9463 23.1861 23.0016 23.0561 23.0016 22.9203C23.0016 22.7845 22.9463 22.6545 22.8485 22.5602L22.5016 22.9203ZM18.5816 26.0028C18.3828 26.1944 18.3769 26.511 18.5685 26.7098C18.7601 26.9087 19.0766 26.9146 19.2755 26.723L18.5816 26.0028ZM13.5379 7.1035L13.4816 6.60668L13.4815 6.60669L13.5379 7.1035ZM14.8561 6.00577L15.3378 6.13988L15.3379 6.13965L14.8561 6.00577ZM18.2821 4.25587L18.3628 3.76241L18.3625 3.76237L18.2821 4.25587ZM19.8704 3.55583L19.4471 3.2898L19.447 3.28998L19.8704 3.55583ZM23.0891 2.64566L23.3024 2.19344L23.3024 2.19343L23.0891 2.64566ZM24.8206 2.40635L24.4902 2.03107L24.4902 2.03109L24.8206 2.40635ZM28.1796 2.40635L28.51 2.03109L28.51 2.03104L28.1796 2.40635ZM29.911 2.64566L30.1242 3.09794L30.1243 3.09792L29.911 2.64566ZM33.7248 3.55583L34.1482 3.28988L34.1482 3.28982L33.7248 3.55583ZM35.3135 4.25587L35.3939 4.74937L35.3943 4.74931L35.3135 4.25587ZM38.7395 6.00577L39.2213 5.87196L39.2213 5.87187L38.7395 6.00577ZM40.0573 7.1035L40.1139 6.6067L40.1137 6.60668L40.0573 7.1035ZM41.9554 9.60481V10.1048H42.7979L42.3943 9.36528L41.9554 9.60481ZM11.044 9.60481L10.6049 9.36551L10.202 10.1048H11.044V9.60481ZM18.5816 19.8377L22.1547 23.2803L22.8485 22.5602L19.2755 19.1176L18.5816 19.8377ZM22.1547 22.5602L18.5816 26.0028L19.2755 26.723L22.8485 23.2803L22.1547 22.5602ZM13.5942 7.60031C14.419 7.50682 15.1161 6.93612 15.3378 6.13988L14.3744 5.87166C14.267 6.25759 13.9201 6.55697 13.4816 6.60668L13.5942 7.60031ZM15.3379 6.13965C15.4343 5.7927 15.846 5.39513 16.4877 5.09424C17.1136 4.80073 17.7868 4.68175 18.2017 4.74936L18.3625 3.76237C17.6813 3.65138 16.7979 3.84428 16.0631 4.18884C15.3441 4.52602 14.5909 5.0927 14.3744 5.87188L15.3379 6.13965ZM18.2015 4.74932C19.0217 4.88333 19.8536 4.52298 20.2939 3.82168L19.447 3.28998C19.2282 3.63854 18.8001 3.83386 18.3628 3.76241L18.2015 4.74932ZM20.2938 3.82185C20.5065 3.48339 20.931 3.1923 21.4494 3.04481C21.9665 2.89767 22.4934 2.91753 22.8759 3.09789L23.3024 2.19343C22.6469 1.88427 21.8604 1.88818 21.1757 2.08298C20.4922 2.27744 19.8264 2.68619 19.4471 3.2898L20.2938 3.82185ZM22.8758 3.09788C23.6272 3.45228 24.5283 3.32993 25.151 2.7816L24.4902 2.03109C24.1707 2.31238 23.6978 2.37993 23.3024 2.19344L22.8758 3.09788ZM25.151 2.78163C25.4584 2.51101 25.9561 2.34732 26.4991 2.34703C27.0421 2.34673 27.5404 2.50983 27.8492 2.78165L28.51 2.03104C27.97 1.55575 27.2116 1.34664 26.4986 1.34703C25.7857 1.34741 25.0283 1.55728 24.4902 2.03107L25.151 2.78163ZM27.8492 2.7816C28.4719 3.32996 29.3725 3.45223 30.1242 3.09794L29.6979 2.19338C29.302 2.37998 28.8294 2.31236 28.51 2.03109L27.8492 2.7816ZM30.1243 3.09792C30.492 2.92452 31.1666 2.89211 31.8671 3.04928C32.2054 3.1252 32.5217 3.23967 32.7789 3.38088C33.0406 3.52453 33.2121 3.67962 33.3015 3.82183L34.1482 3.28982C33.9373 2.95419 33.6099 2.69627 33.2601 2.50427C32.9059 2.30984 32.4981 2.16602 32.086 2.07355C31.2855 1.89392 30.3535 1.88428 29.6978 2.19341L30.1243 3.09792ZM33.3014 3.82177C33.7423 4.52367 34.5742 4.88278 35.3939 4.74937L35.2332 3.76236C34.7953 3.83364 34.3673 3.63862 34.1482 3.28988L33.3014 3.82177ZM35.3943 4.74931C35.8175 4.68008 36.491 4.80287 37.1152 5.09898C37.7558 5.40287 38.1638 5.80133 38.2578 6.13967L39.2213 5.87187C39.0076 5.10314 38.2604 4.5354 37.5438 4.19548C36.8108 3.84778 35.9252 3.64916 35.2328 3.76243L35.3943 4.74931ZM38.2578 6.13958C38.479 6.93622 39.1769 7.50682 40.001 7.60031L40.1137 6.60668C39.6754 6.55697 39.3284 6.25749 39.2213 5.87196L38.2578 6.13958ZM40.0008 7.60029C39.9302 7.59225 39.8804 7.57028 39.862 7.56164C39.8395 7.5511 39.825 7.54166 39.8202 7.53852C39.811 7.53242 39.8125 7.53239 39.8273 7.54533C39.8555 7.57003 39.9012 7.61456 39.9641 7.68194C40.088 7.81463 40.2527 8.00811 40.4358 8.24094C40.8032 8.7081 41.2223 9.30526 41.5165 9.84433L42.3943 9.36528C42.0646 8.7611 41.6099 8.11617 41.2218 7.62276C41.0272 7.37531 40.8438 7.15889 40.6952 6.99962C40.6218 6.92101 40.5502 6.84905 40.4857 6.79267C40.4542 6.76507 40.4155 6.73336 40.373 6.70518C40.3506 6.6903 40.2512 6.62233 40.1139 6.6067L40.0008 7.60029ZM41.9554 9.10481H11.044V10.1048H41.9554V9.10481ZM11.483 9.84411C11.7305 9.38994 12.2329 8.81599 12.7355 8.33675C12.9823 8.10141 13.2166 7.90078 13.402 7.76021C13.4953 7.68941 13.5692 7.63915 13.6216 7.60811C13.6975 7.56311 13.6737 7.59129 13.5944 7.6003L13.4815 6.60669C13.326 6.62436 13.1848 6.70451 13.1116 6.74792C13.0148 6.8053 12.9078 6.87988 12.7976 6.96348C12.5758 7.13172 12.3127 7.35813 12.0454 7.61305C11.5197 8.11431 10.9275 8.7737 10.6049 9.36551L11.483 9.84411ZM22.5016 22.9203L21.6267 22.436C21.449 22.7569 21.4614 23.1494 21.6588 23.4586L22.5016 22.9203ZM52.9845 33.2945L53.9737 33.148L53.9736 33.1476L52.9845 33.2945ZM49.6578 10.8874L48.6687 11.0341L48.6687 11.0342L49.6578 10.8874ZM44.0462 9.60442L43.0719 9.82993L43.2512 10.6044H44.0462V9.60442ZM40.1959 5.49252L39.308 5.95261L39.4979 6.31915L39.8911 6.44496L40.1959 5.49252ZM35.1875 2.39624L34.4671 3.08979L34.7485 3.38212L35.1541 3.39568L35.1875 2.39624ZM29.4768 0.780971L28.9797 1.64867L29.3276 1.848L29.7169 1.75172L29.4768 0.780971ZM23.523 0.780971L23.283 1.75173L23.6722 1.84799L24.0202 1.64862L23.523 0.780971ZM17.8119 2.39624L17.8456 3.39567L18.251 3.38197L18.5323 3.08978L17.8119 2.39624ZM12.8035 5.49291L13.1079 6.44545L13.5015 6.31968L13.6915 5.95276L12.8035 5.49291ZM8.95321 9.60442V10.6044H9.74832L9.92749 9.82975L8.95321 9.60442ZM3.34194 10.8874L4.3311 11.0342L4.33111 11.0341L3.34194 10.8874ZM0.0156993 33.2945L1.00478 33.4418L1.00486 33.4413L0.0156993 33.2945ZM0.379621 34.4848L1.12264 33.8155L1.12264 33.8155L0.379621 34.4848ZM52.6201 34.4848L53.3627 35.1546L53.3632 35.1541L52.6201 34.4848ZM1.55623 33.7328L0.567613 33.5824L0.392564 34.7328H1.55623V33.7328ZM5.03481 10.8716V9.8716H4.17546L4.04619 10.7212L5.03481 10.8716ZM47.965 10.8716L48.9536 10.7212L48.8243 9.8716H47.965V10.8716ZM51.4435 33.7328V34.7328H52.6072L52.4321 33.5824L51.4435 33.7328ZM28.1589 19.617C29.4528 19.617 30.7128 20.3075 31.6969 21.1903C32.1796 21.6233 32.5629 22.074 32.8177 22.4479C32.9455 22.6355 33.0311 22.7893 33.081 22.8997C33.1425 23.0361 33.1139 23.0275 33.1139 22.9203H35.1139C35.1139 22.5979 35.0016 22.2935 34.9038 22.0769C34.7943 21.8342 34.645 21.5779 34.4704 21.3217C34.1204 20.808 33.629 20.2367 33.0324 19.7015C31.8578 18.6479 30.1403 17.617 28.1589 17.617L28.1589 19.617ZM33.1139 22.9203C33.1139 22.8016 33.1493 22.7769 33.0963 22.8837C33.0538 22.9695 32.9763 23.0954 32.8538 23.2533C32.6099 23.5678 32.2362 23.9474 31.7575 24.3132C30.7906 25.0521 29.5102 25.6498 28.1589 25.6498V27.6498C30.0829 27.6498 31.78 26.8131 32.9718 25.9024C33.5725 25.4434 34.0734 24.9443 34.4343 24.4789C34.6143 24.2468 34.7716 24.0074 34.8885 23.7716C34.9949 23.5568 35.1139 23.2541 35.1139 22.9203H33.1139ZM28.1589 25.6498C26.8968 25.6498 25.7185 24.9207 24.7822 24.052C24.3275 23.6301 23.9626 23.2053 23.7115 22.8855C23.5866 22.7264 23.4914 22.5953 23.429 22.5063C23.3978 22.4618 23.3749 22.4281 23.3607 22.4067C23.3536 22.3961 23.3486 22.3885 23.3459 22.3843C23.3445 22.3822 23.3437 22.381 23.3434 22.3806C23.3433 22.3804 23.3433 22.3804 23.3435 22.3806C23.3435 22.3807 23.3437 22.3809 23.3438 22.3811C23.3439 22.3813 23.344 22.3815 23.3441 22.3815C23.3442 22.3818 23.3444 22.382 22.5016 22.9203C21.6588 23.4586 21.659 23.4588 21.6592 23.4591C21.6592 23.4592 21.6594 23.4595 21.6596 23.4598C21.6599 23.4602 21.6602 23.4607 21.6606 23.4613C21.6613 23.4624 21.6622 23.4638 21.6632 23.4654C21.6653 23.4686 21.6679 23.4727 21.6712 23.4777C21.6776 23.4876 21.6865 23.501 21.6976 23.5176C21.7198 23.5509 21.7513 23.5972 21.7917 23.6548C21.8723 23.7697 21.9888 23.93 22.1384 24.1205C22.4363 24.5 22.8716 25.0076 23.4219 25.5181C24.4953 26.5141 26.1457 27.6498 28.1589 27.6498V25.6498ZM28.1589 17.617C26.0909 17.617 24.426 18.9569 23.3712 20.086C22.8246 20.6713 22.3928 21.2523 22.0982 21.6854C21.9502 21.9029 21.8351 22.0855 21.7558 22.2159C21.7162 22.2812 21.6853 22.3336 21.6637 22.3709C21.6529 22.3896 21.6444 22.4046 21.6382 22.4155C21.6351 22.421 21.6326 22.4254 21.6307 22.4288C21.6297 22.4306 21.6289 22.432 21.6282 22.4332C21.6279 22.4338 21.6276 22.4343 21.6273 22.4348C21.6272 22.435 21.6271 22.4353 21.627 22.4354C21.6268 22.4357 21.6267 22.436 22.5016 22.9203C23.3765 23.4046 23.3764 23.4048 23.3762 23.405C23.3762 23.4051 23.3761 23.4053 23.3761 23.4054C23.3759 23.4056 23.3759 23.4057 23.3758 23.4058C23.3757 23.4059 23.3758 23.4058 23.376 23.4055C23.3764 23.4048 23.3773 23.4031 23.3789 23.4004C23.3819 23.395 23.3871 23.3858 23.3946 23.373C23.4094 23.3473 23.433 23.3072 23.4648 23.2548C23.5286 23.1499 23.6252 22.9964 23.7517 22.8104C24.006 22.4366 24.3745 21.9418 24.8328 21.4513C25.7879 20.4288 26.9516 19.617 28.1589 19.617L28.1589 17.617ZM53.9736 33.1476L50.647 10.7405L48.6687 11.0342L51.9953 33.4413L53.9736 33.1476ZM50.647 10.7406C50.461 9.48675 49.3606 8.60442 48.1209 8.60442V10.6044C48.4266 10.6044 48.6363 10.8163 48.6687 11.0341L50.647 10.7406ZM48.1209 8.60442H44.0462V10.6044H48.1209V8.60442ZM45.0204 9.37891C44.1721 5.71435 40.8433 4.64973 40.5006 4.54008L39.8911 6.44496C40.1711 6.53454 42.4871 7.30349 43.0719 9.82993L45.0204 9.37891ZM41.0837 5.03242C39.2795 1.5506 35.59 1.40913 35.2209 1.39679L35.1541 3.39568C35.4603 3.40591 38.0569 3.53838 39.308 5.95261L41.0837 5.03242ZM35.9079 1.70268C33.711 -0.579281 30.7829 -0.572245 29.2366 -0.189773L29.7169 1.75172C30.845 1.47267 32.935 1.49839 34.4671 3.08979L35.9079 1.70268ZM29.9739 -0.0867255C28.5893 -0.879916 25.7862 -1.66838 23.0258 -0.0866825L24.0202 1.64862C25.9673 0.532896 27.9842 1.07836 28.9797 1.64867L29.9739 -0.0867255ZM23.763 -0.18979C22.2164 -0.572237 19.2879 -0.578883 17.0914 1.70269L18.5323 3.08978C20.064 1.49877 22.1544 1.47266 23.283 1.75173L23.763 -0.18979ZM17.7781 1.39681C17.4136 1.40912 13.719 1.55039 11.9155 5.03305L13.6915 5.95276C14.9417 3.5386 17.5421 3.40592 17.8456 3.39567L17.7781 1.39681ZM12.4991 4.54036C12.1497 4.65203 8.82494 5.72117 7.97893 9.37908L9.92749 9.82975C10.5105 7.30912 12.8241 6.53613 13.1079 6.44545L12.4991 4.54036ZM8.95321 8.60442H4.8789V10.6044H8.95321V8.60442ZM4.8789 8.60442C3.63919 8.60442 2.53881 9.48675 2.35277 10.7406L4.33111 11.0341C4.36343 10.8163 4.57316 10.6044 4.8789 10.6044V8.60442ZM2.35278 10.7405L-0.973461 33.1476L1.00486 33.4413L4.3311 11.0342L2.35278 10.7405ZM-0.973383 33.1471C-1.08217 33.8773 -0.853836 34.6096 -0.363395 35.1541L1.12264 33.8155C1.02352 33.7055 0.985794 33.5693 1.00478 33.4418L-0.973383 33.1471ZM-0.363395 35.1541C0.125882 35.6973 0.826624 36 1.55266 36V34C1.3786 34 1.22291 33.9269 1.12264 33.8155L-0.363395 35.1541ZM1.55266 36H51.4471V34H1.55266V36ZM51.4471 36C52.1735 36 52.8735 35.697 53.3627 35.1546L51.8776 33.815C51.7765 33.9271 51.6208 34 51.4471 34V36ZM53.3632 35.1541C53.8536 34.6096 54.0817 33.8776 53.9737 33.148L51.9953 33.4409C52.0142 33.569 51.9762 33.7055 51.8771 33.8155L53.3632 35.1541ZM2.54485 33.8832L6.02343 11.022L4.04619 10.7212L0.567613 33.5824L2.54485 33.8832ZM5.03481 11.8716H47.965V9.8716H5.03481V11.8716ZM46.9763 11.022L50.4549 33.8832L52.4321 33.5824L48.9536 10.7212L46.9763 11.022ZM51.4435 32.7328H1.55623V34.7328H51.4435V32.7328Z" fill="#FFFDFB" mask="url(#path-1-inside-1)"/>
</svg>
