<svg width="456" height="425" viewBox="0 0 456 425" fill="none" xmlns="http://www.w3.org/2000/svg">
<path d="M140.212 132.542C177.95 178.797 138.688 256.456 86.225 236.317C63.5979 227.632 50.5333 203.136 50.1463 178.082C49.2551 120.218 107.815 92.8216 140.212 132.542Z" fill="#FAC663" fill-opacity="0.15"/>
<path d="M186.045 161.618C128.014 139.342 148.397 34.308 209.737 39.2998C237.683 41.5764 259.461 70.2137 256.234 106.042C252.628 146.204 218.669 174.142 186.045 161.618Z" fill="#FAC663" fill-opacity="0.15"/>
<path d="M133.759 342.439C142.671 343.309 157.524 347.367 172.575 352.907C188.49 358.75 204.624 366.243 214.207 373.32C240.071 392.486 286.946 388.131 293.831 344.357C300.192 303.888 270.645 294.991 277.457 256.939C284.362 218.491 264.397 190.992 238.02 182.417C213.607 174.484 183.702 182.77 164.579 213.619C144.21 246.494 116.366 233.338 94.0299 267.66C69.812 304.818 101.856 339.347 133.759 342.439Z" fill="#FAC663" fill-opacity="0.15"/>
<path d="M288.177 200.827C271.762 194.526 261.318 179.598 259.075 162.027C252.412 109.779 313.673 64.5064 352.409 94.1075C401.411 131.524 346.176 223.091 288.177 200.827Z" fill="#FAC663" fill-opacity="0.15"/>
<path d="M288.959 277.189C287.795 224.529 353.3 185.895 388.768 219.577C431.492 260.147 374.206 342.402 318.338 320.957C300.408 314.074 289.401 297.208 288.959 277.189Z" fill="#FAC663" fill-opacity="0.15"/>
</svg>
