<svg display="none" xmlns="http://www.w3.org/2000/svg">

  <symbol id="icon-foot" width="21" height="18" viewBox="0 0 21 18" xmlns="http://www.w3.org/2000/svg">
    <path d="M16.8031 6.52459C13.8387 8.22475 14.3435 13.1874 17.5591 13.1874C18.9459 13.1874 20.1462 12.1449 20.6806 10.812C21.9148 7.73361 19.3483 5.06439 16.8031 6.52459Z" />
    <path d="M13.7585 7.13911C17.3153 7.13911 18.3803 1.0992 15.0011 0.106215C13.4616 -0.346048 11.7109 0.739136 11.1486 2.72287C10.5177 4.94631 11.7589 7.13911 13.7585 7.13911Z" />
    <path d="M12.8437 17.8903C12.3498 17.7537 11.4731 17.6658 10.5555 17.6531C9.58551 17.6389 8.56997 17.7084 7.9129 17.8903C6.13824 18.3847 3.72348 17.1886 4.25331 14.7045C4.74338 12.408 6.50422 12.5389 6.92062 10.3625C7.34017 8.16298 8.97061 7.10147 10.5555 7.18444C12.0223 7.26144 13.4499 8.31922 13.8389 10.363C14.2529 12.5409 16.0101 12.4088 16.4994 14.7045C17.0312 17.1906 14.6114 18.3802 12.8437 17.8903Z" />
    <path d="M7.49859 7.13932C8.50467 7.13932 9.36873 6.55499 9.84887 5.66068C11.2762 3.00141 8.93197 -0.680001 6.25571 0.10841C2.87074 1.10414 3.94372 7.13932 7.49859 7.13932Z" />
    <path d="M5.89091 11.2099C7.03297 8.41561 4.32591 5.00232 1.74052 6.07629C-1.37374 7.36979 -0.000207816 12.9487 3.42404 12.9487C4.52296 12.9487 5.45682 12.2722 5.89091 11.2099Z" />
    <path d="M12.8437 17.8902C12.3497 17.7537 11.473 17.6657 10.5554 17.653V7.1844C12.0223 7.2614 13.4498 8.31918 13.8388 10.363C14.2528 12.5408 16.01 12.4087 16.4994 14.7045C17.0311 17.1905 14.6113 18.3801 12.8437 17.8902Z" />
  </symbol>


  <symbol id="icon-temperature" width="31" height="55" viewBox="0 0 31 55" xmlns="http://www.w3.org/2000/svg">
    <path d="M30.1806 12.6389C30.6331 12.6389 31 13.0058 31 13.4584C31 13.9109 30.6331 14.2778 30.1806 14.2778H22.8522C22.3996 14.2778 22.0328 13.9109 22.0328 13.4584C22.0328 13.0058 22.3996 12.6389 22.8522 12.6389H30.1806ZM27.2395 17.1568C27.2395 16.7042 26.8727 16.3374 26.4201 16.3374H22.8522C22.3996 16.3374 22.0328 16.7042 22.0328 17.1568C22.0328 17.6093 22.3996 17.9762 22.8522 17.9762H26.4201C26.8727 17.9762 27.2395 17.6093 27.2395 17.1568ZM22.0328 20.8552C22.0328 21.3077 22.3996 21.6746 22.8522 21.6746H30.1806C30.6331 21.6746 31 21.3077 31 20.8552C31 20.4026 30.6331 20.0358 30.1806 20.0358H22.8522C22.3996 20.0358 22.0328 20.4026 22.0328 20.8552ZM27.2395 24.5548C27.2395 24.1022 26.8727 23.7354 26.4201 23.7354H22.8522C22.3996 23.7354 22.0328 24.1022 22.0328 24.5548C22.0328 25.0073 22.3996 25.3742 22.8522 25.3742H26.4201C26.8727 25.3742 27.2395 25.0073 27.2395 24.5548ZM22.0328 28.2532C22.0328 28.7058 22.3996 29.0726 22.8522 29.0726H30.1806C30.6331 29.0726 31 28.7058 31 28.2532C31 27.8006 30.6331 27.4338 30.1806 27.4338H22.8522C22.3996 27.4338 22.0328 27.8006 22.0328 28.2532ZM23.4305 43.1337C23.4305 49.6769 18.1751 55 11.7153 55C5.25537 55 0 49.6769 0 43.1337C0 38.8934 2.19842 35.04 5.78531 32.9081V6.00641C5.78531 2.69439 8.44539 0 11.7153 0C14.9851 0 17.6452 2.69439 17.6452 6.00641V32.9081C21.2321 35.0376 23.4305 38.8923 23.4305 43.1337ZM21.8053 43.1337C21.8053 39.5357 19.8313 35.5783 16.6529 33.9434L16.02 33.6176V6.00759C16.02 3.98709 13.7089 1.64001 11.7153 1.64001C9.72163 1.64001 7.41054 3.98709 7.41054 6.00759V33.6176L6.77763 33.9434C3.59918 35.5795 1.62523 39.5369 1.62523 43.1337C1.62523 48.3842 6.53161 53.3612 11.7153 53.3612C16.8989 53.3612 21.8053 48.3842 21.8053 43.1337ZM19.1887 43.1337C19.1887 47.3071 15.8367 50.7023 11.7153 50.7023C7.59495 50.7023 4.24294 47.3071 4.24294 43.1337C4.24294 39.7127 7.21356 36.7089 10.4811 35.8287L10.9104 35.7127V22.0617C10.9104 21.6169 11.271 21.2563 11.7158 21.2563C12.1607 21.2563 12.5213 21.6169 12.5213 22.0617V35.7115L12.9506 35.8287C16.2193 36.7089 19.1887 39.7138 19.1887 43.1337ZM12.7444 38.0769C12.5663 37.2753 11.8002 37.4644 10.9891 37.6519C8.15656 38.3012 6.17799 40.8104 6.17799 43.7544C6.17799 44.5877 6.17799 45.4808 7.23333 45.4808C7.79306 45.4808 7.92222 44.5512 7.92222 43.7179C7.92222 42.2213 8.83681 39.9881 10.9891 39.4872C11.7897 39.3008 12.9249 38.8879 12.7444 38.0769Z" />
  </symbol>

  <symbol id="icon-cctv" width="47" height="37" viewBox="0 0 47 37" xmlns="http://www.w3.org/2000/svg">
    <path d="M46.9987 14.6244C46.98 14.2178 46.7407 13.4641 45.3486 12.9845L8.23383 0.209733C6.33133 -0.445546 4.22 0.486148 3.52748 2.28714L2.52277 4.90001L0.262264 10.7792C-0.430161 12.5803 0.554271 14.5787 2.45713 15.2343L13.2741 18.9568C13.0686 20.1404 13.4115 21.3097 14.1578 22.2043L11.8535 28.1969C11.7474 28.4727 11.4677 28.658 11.1573 28.658H4.40626V26.5725C4.40626 25.4226 3.41797 24.487 2.20313 24.487H0.734376C0.328817 24.487 0 24.7983 0 25.1822V36.3048C0 36.6887 0.328817 37 0.734376 37H2.20313C3.41797 37 4.40626 36.0644 4.40626 34.9145V32.829H11.1573C13.3134 32.829 15.2571 31.5405 15.994 29.6229L18.2498 23.7563C19.5407 23.5847 20.7139 22.8712 21.4103 21.7569L34.051 26.107C34.4642 26.2494 34.887 26.3169 35.3032 26.3169C36.5655 26.3168 37.7649 25.6957 38.4366 24.6589L39.8872 25.1587C40.051 25.2151 40.2209 25.2432 40.3902 25.2432C40.6016 25.2432 40.8123 25.1994 41.0096 25.1123C41.3649 24.9555 41.6344 24.677 41.7685 24.3284L43.7786 19.1006C44.023 18.4647 43.744 17.7679 43.1517 17.4332L45.5059 16.3941C46.8485 15.8015 47.0174 15.031 46.9987 14.6244ZM2.9375 34.9145C2.9375 35.2978 2.60805 35.6097 2.20313 35.6097H1.46875V25.8774H2.20313C2.60805 25.8774 2.9375 26.1892 2.9375 26.5725V34.9145ZM14.6138 29.1475C14.0872 30.5179 12.6981 31.4387 11.1573 31.4387H4.40626V30.0484H11.1573C12.0828 30.0484 12.9171 29.4954 13.2336 28.6725L15.3418 23.1899C15.5836 23.3274 15.8428 23.4455 16.118 23.5403C16.3133 23.6077 16.5104 23.6609 16.7079 23.7013L14.6138 29.1475ZM17.7264 22.4031C17.7094 22.403 17.6925 22.403 17.6756 22.404C17.3259 22.4084 16.969 22.354 16.6203 22.2338C16.2121 22.0932 15.8561 21.8767 15.5645 21.6071C15.5377 21.5763 15.5081 21.5478 15.4757 21.5216C14.9288 20.9702 14.6359 20.2216 14.6914 19.4446L19.9934 21.2692C19.4569 21.9666 18.6172 22.3771 17.7264 22.4031ZM42.3986 18.6251L40.3898 23.8523L39.0086 23.3764L40.9139 18.421L41.304 18.2489L42.3986 18.6251ZM44.8853 15.134L40.9595 16.8669L40.9583 16.8674L40.0181 17.2824L40.0171 17.2829L38.9148 17.7694C37.6212 18.3404 35.395 18.4323 34.0534 17.9701L5.90998 8.28641C5.52893 8.15546 6.48748 8.81656 6.34896 9.17735C6.21044 9.53823 5.02653 9.46168 5.40776 9.59289L33.5514 19.2768C34.2906 19.5315 35.2017 19.6555 36.1314 19.6555C37.1479 19.6555 38.1857 19.5065 39.0447 19.2179L37.3775 23.554C36.962 24.6347 35.6952 25.1938 34.5534 24.8004L2.95917 13.9278C1.81758 13.5345 1.22696 12.3354 1.64243 11.2548L2.89895 7.9868C3.318 8.59663 3.94121 9.08768 4.71745 9.35514L5.40776 9.59289C5.78854 9.72427 6.21025 9.53814 6.34896 9.17735C6.48766 8.81665 6.29113 8.41771 5.90998 8.28641L5.21976 8.04867C4.07836 7.65538 3.48764 6.45657 3.90284 5.37602L4.15418 4.72231L4.90765 2.76264C5.32322 1.682 6.58992 1.12266 7.7317 1.51621L44.8464 14.2911C45.3179 14.4535 45.4923 14.6228 45.5277 14.6851C45.4982 14.7503 45.3401 14.9332 44.8853 15.134Z" />
    <path d="M40.9595 16.8669L44.8853 15.134C45.3401 14.9332 45.4982 14.7503 45.5277 14.6851C45.4923 14.6228 45.3179 14.4535 44.8464 14.2911L7.7317 1.51621C6.58992 1.12266 5.32322 1.682 4.90765 2.76264L4.15418 4.72231L3.90284 5.37602C3.48764 6.45657 4.07836 7.65538 5.21976 8.04867L5.90998 8.28641L34.0534 17.9701C35.395 18.4323 37.6212 18.3404 38.9148 17.7694L40.0171 17.2829L40.0181 17.2824L40.9583 16.8674L40.9595 16.8669Z" />
  </symbol>

  <symbol id="icon-zootaxi" width="51" height="31" viewBox="0 0 51 31" xmlns="http://www.w3.org/2000/svg">
    <path d="M50.8329 17.5535C50.6102 17.3285 46.378 12.0399 37.1339 11.8711C36.2429 10.2958 32.846 5.17604 27.333 5.17604H27.166L24.7157 0.45009C24.5487 0.168784 24.2702 0 23.9918 0H20.2051C19.871 0 19.5925 0.168784 19.4811 0.45009L17.2537 5.11978H16.5297C16.307 5.11978 11.0724 4.72595 5.61508 11.8149H1.38286C0.993053 11.8149 0.658931 12.0962 0.547557 12.49C0.49187 12.8276 -1.17874 20.9292 1.60561 24.4174C2.4966 25.4864 3.66603 26.049 5.11389 26.049H6.28332C6.67313 28.8621 9.06767 31 11.9634 31C14.8591 31 17.2537 28.8621 17.6435 26.049H33.9041C34.2939 28.8621 36.6884 31 39.5842 31C42.4799 31 44.8744 28.8621 45.2642 26.049H50.1647C50.6102 26.049 51 25.6552 51 25.2051V18.0599C51 17.8911 50.9443 17.6661 50.8329 17.5535ZM27.333 6.80762C31.2311 6.80762 33.9041 10.0708 35.1292 11.8711H23.0451V6.80762H27.333ZM20.7619 1.68784H23.4906L25.2726 5.17604H22.2098H19.0913L20.7619 1.68784ZM16.474 6.80762H21.4302V11.8711H7.78687C12.2975 6.63884 16.3627 6.80762 16.474 6.80762ZM11.9634 29.3684C9.73591 29.3684 7.89824 27.5118 7.89824 25.2613C7.89824 23.0109 9.73591 21.1543 11.9634 21.1543C14.1909 21.1543 16.0285 23.0109 16.0285 25.2613C16.0842 27.5118 14.2466 29.3684 11.9634 29.3684ZM39.5842 29.3684C37.3567 29.3684 35.519 27.5118 35.519 25.2613C35.519 23.0109 37.3567 21.1543 39.5842 21.1543C41.8116 21.1543 43.6493 23.0109 43.6493 25.2613C43.6493 27.5118 41.8673 29.3684 39.5842 29.3684ZM49.3294 24.4174H45.2642C44.8744 21.6044 42.4799 19.4664 39.5842 19.4664C36.6884 19.4664 34.2939 21.6044 33.9041 24.4174H17.6435C17.2537 21.6044 14.8591 19.4664 11.9634 19.4664C9.06767 19.4664 6.67313 21.6044 6.28332 24.4174H5.11389C4.16721 24.4174 3.44328 24.0799 2.88641 23.4047C1.16011 21.2105 1.60561 16.0907 2.05111 13.559H6.00488H36.6327C44.3732 13.559 48.4384 17.441 49.3294 18.3975V24.4174Z" />
    <path d="M20.7619 1.68784H23.4906L25.2726 5.17604H22.2098H19.0913L20.7619 1.68784Z" />
    <path d="M11.9634 29.3684C9.73591 29.3684 7.89824 27.5118 7.89824 25.2613C7.89824 23.0109 9.73591 21.1543 11.9634 21.1543C14.1909 21.1543 16.0285 23.0109 16.0285 25.2613C16.0842 27.5118 14.2466 29.3684 11.9634 29.3684Z" />
    <path d="M39.5842 29.3684C37.3567 29.3684 35.519 27.5118 35.519 25.2613C35.519 23.0109 37.3567 21.1543 39.5842 21.1543C41.8116 21.1543 43.6493 23.0109 43.6493 25.2613C43.6493 27.5118 41.8673 29.3684 39.5842 29.3684Z" />
  </symbol>


  <symbol id="icon-food" width="53" height="35" viewBox="0 0 53 35" xmlns="http://www.w3.org/2000/svg">
    <mask id="path-1-inside-1">
      <path d="M28.1589 18.617C31.4342 18.617 34.1139 22.0596 34.1139 22.9203C34.1139 23.7809 31.4342 26.6498 28.1589 26.6498C24.8836 26.6498 22.5016 22.9203 22.5016 22.9203C22.5016 22.9203 24.8836 18.617 28.1589 18.617Z" />
      <path d="M52.9845 33.2945L49.6578 10.8874C49.5486 10.1515 48.8936 9.60442 48.1209 9.60442H44.0462C43.3296 6.50892 40.5072 5.59213 40.1959 5.49252C38.6682 2.54449 35.5251 2.40752 35.1875 2.39624C33.323 0.459552 30.814 0.450213 29.4768 0.780971C28.2867 0.0992209 25.8768 -0.567743 23.523 0.780971C22.1854 0.450213 19.6759 0.459941 17.8119 2.39624C17.4779 2.40752 14.3303 2.54449 12.8035 5.49291C12.4869 5.59408 9.66771 6.51514 8.95321 9.60442H4.8789C4.10618 9.60442 3.45112 10.1515 3.34194 10.8874L0.0156993 33.2945C-0.0481892 33.7233 0.0848443 34.1575 0.379621 34.4848C0.674397 34.8121 1.10261 35 1.55266 35H51.4471C51.8972 35 52.325 34.8121 52.6201 34.4848C52.9149 34.1575 53.048 33.7233 52.9845 33.2945ZM13.5379 7.1035C14.1695 7.0319 14.6916 6.59685 14.8561 6.00577C15.1691 4.87964 17.1859 4.07726 18.2821 4.25587C18.9109 4.3586 19.5409 4.08076 19.8704 3.55583C20.4624 2.61375 22.0511 2.15614 23.0891 2.64566C23.6625 2.9161 24.3495 2.82116 24.8206 2.40635C25.6661 1.66195 27.3308 1.65922 28.1796 2.40635C28.6507 2.82116 29.3373 2.9161 29.911 2.64566C30.9345 2.16314 33.1244 2.60013 33.7248 3.55583C34.0548 4.08115 34.6848 4.35821 35.3135 4.25587C36.4292 4.07337 38.4318 4.8987 38.7395 6.00577C38.9037 6.59685 39.4261 7.0319 40.0573 7.1035C40.2078 7.12062 41.3315 8.46155 41.9554 9.60481H11.044C11.6141 8.55884 13.233 7.13813 13.5379 7.1035ZM1.55623 33.7328L5.03481 10.8716H47.965L51.4435 33.7328H1.55623Z" />
      <path d="M13.5379 7.1035C14.1695 7.0319 14.6916 6.59685 14.8561 6.00577C15.1691 4.87964 17.1859 4.07726 18.2821 4.25587C18.9109 4.3586 19.5409 4.08076 19.8704 3.55583C20.4624 2.61375 22.0511 2.15614 23.0891 2.64566C23.6625 2.9161 24.3495 2.82116 24.8206 2.40635C25.6661 1.66195 27.3308 1.65922 28.1796 2.40635C28.6507 2.82116 29.3373 2.9161 29.911 2.64566C30.9345 2.16314 33.1244 2.60013 33.7248 3.55583C34.0548 4.08115 34.6848 4.35821 35.3135 4.25587C36.4292 4.07337 38.4318 4.8987 38.7395 6.00577C38.9037 6.59685 39.4261 7.0319 40.0573 7.1035C40.2078 7.12062 41.3315 8.46155 41.9554 9.60481H11.044C11.6141 8.55884 13.233 7.13813 13.5379 7.1035Z" />
    </mask>
    <path d="M28.1589 18.617C31.4342 18.617 34.1139 22.0596 34.1139 22.9203C34.1139 23.7809 31.4342 26.6498 28.1589 26.6498C24.8836 26.6498 22.5016 22.9203 22.5016 22.9203C22.5016 22.9203 24.8836 18.617 28.1589 18.617Z" />
    <path d="M52.9845 33.2945L49.6578 10.8874C49.5486 10.1515 48.8936 9.60442 48.1209 9.60442H44.0462C43.3296 6.50892 40.5072 5.59213 40.1959 5.49252C38.6682 2.54449 35.5251 2.40752 35.1875 2.39624C33.323 0.459552 30.814 0.450213 29.4768 0.780971C28.2867 0.0992209 25.8768 -0.567743 23.523 0.780971C22.1854 0.450213 19.6759 0.459941 17.8119 2.39624C17.4779 2.40752 14.3303 2.54449 12.8035 5.49291C12.4869 5.59408 9.66771 6.51514 8.95321 9.60442H4.8789C4.10618 9.60442 3.45112 10.1515 3.34194 10.8874L0.0156993 33.2945C-0.0481892 33.7233 0.0848443 34.1575 0.379621 34.4848C0.674397 34.8121 1.10261 35 1.55266 35H51.4471C51.8972 35 52.325 34.8121 52.6201 34.4848C52.9149 34.1575 53.048 33.7233 52.9845 33.2945ZM13.5379 7.1035C14.1695 7.0319 14.6916 6.59685 14.8561 6.00577C15.1691 4.87964 17.1859 4.07726 18.2821 4.25587C18.9109 4.3586 19.5409 4.08076 19.8704 3.55583C20.4624 2.61375 22.0511 2.15614 23.0891 2.64566C23.6625 2.9161 24.3495 2.82116 24.8206 2.40635C25.6661 1.66195 27.3308 1.65922 28.1796 2.40635C28.6507 2.82116 29.3373 2.9161 29.911 2.64566C30.9345 2.16314 33.1244 2.60013 33.7248 3.55583C34.0548 4.08115 34.6848 4.35821 35.3135 4.25587C36.4292 4.07337 38.4318 4.8987 38.7395 6.00577C38.9037 6.59685 39.4261 7.0319 40.0573 7.1035C40.2078 7.12062 41.3315 8.46155 41.9554 9.60481H11.044C11.6141 8.55884 13.233 7.13813 13.5379 7.1035ZM1.55623 33.7328L5.03481 10.8716H47.965L51.4435 33.7328H1.55623Z" />
    <path d="M13.5379 7.1035C14.1695 7.0319 14.6916 6.59685 14.8561 6.00577C15.1691 4.87964 17.1859 4.07726 18.2821 4.25587C18.9109 4.3586 19.5409 4.08076 19.8704 3.55583C20.4624 2.61375 22.0511 2.15614 23.0891 2.64566C23.6625 2.9161 24.3495 2.82116 24.8206 2.40635C25.6661 1.66195 27.3308 1.65922 28.1796 2.40635C28.6507 2.82116 29.3373 2.9161 29.911 2.64566C30.9345 2.16314 33.1244 2.60013 33.7248 3.55583C34.0548 4.08115 34.6848 4.35821 35.3135 4.25587C36.4292 4.07337 38.4318 4.8987 38.7395 6.00577C38.9037 6.59685 39.4261 7.0319 40.0573 7.1035C40.2078 7.12062 41.3315 8.46155 41.9554 9.60481H11.044C11.6141 8.55884 13.233 7.13813 13.5379 7.1035Z" />
    <path d="M19.2755 19.1176C19.0766 18.926 18.7601 18.9319 18.5685 19.1307C18.3769 19.3296 18.3828 19.6461 18.5816 19.8377L19.2755 19.1176ZM22.5016 22.9203L22.8485 23.2803C22.9463 23.1861 23.0016 23.0561 23.0016 22.9203C23.0016 22.7845 22.9463 22.6545 22.8485 22.5602L22.5016 22.9203ZM18.5816 26.0028C18.3828 26.1944 18.3769 26.511 18.5685 26.7098C18.7601 26.9087 19.0766 26.9146 19.2755 26.723L18.5816 26.0028ZM13.5379 7.1035L13.4816 6.60668L13.4815 6.60669L13.5379 7.1035ZM14.8561 6.00577L15.3378 6.13988L15.3379 6.13965L14.8561 6.00577ZM18.2821 4.25587L18.3628 3.76241L18.3625 3.76237L18.2821 4.25587ZM19.8704 3.55583L19.4471 3.2898L19.447 3.28998L19.8704 3.55583ZM23.0891 2.64566L23.3024 2.19344L23.3024 2.19343L23.0891 2.64566ZM24.8206 2.40635L24.4902 2.03107L24.4902 2.03109L24.8206 2.40635ZM28.1796 2.40635L28.51 2.03109L28.51 2.03104L28.1796 2.40635ZM29.911 2.64566L30.1242 3.09794L30.1243 3.09792L29.911 2.64566ZM33.7248 3.55583L34.1482 3.28988L34.1482 3.28982L33.7248 3.55583ZM35.3135 4.25587L35.3939 4.74937L35.3943 4.74931L35.3135 4.25587ZM38.7395 6.00577L39.2213 5.87196L39.2213 5.87187L38.7395 6.00577ZM40.0573 7.1035L40.1139 6.6067L40.1137 6.60668L40.0573 7.1035ZM41.9554 9.60481V10.1048H42.7979L42.3943 9.36528L41.9554 9.60481ZM11.044 9.60481L10.6049 9.36551L10.202 10.1048H11.044V9.60481ZM18.5816 19.8377L22.1547 23.2803L22.8485 22.5602L19.2755 19.1176L18.5816 19.8377ZM22.1547 22.5602L18.5816 26.0028L19.2755 26.723L22.8485 23.2803L22.1547 22.5602ZM13.5942 7.60031C14.419 7.50682 15.1161 6.93612 15.3378 6.13988L14.3744 5.87166C14.267 6.25759 13.9201 6.55697 13.4816 6.60668L13.5942 7.60031ZM15.3379 6.13965C15.4343 5.7927 15.846 5.39513 16.4877 5.09424C17.1136 4.80073 17.7868 4.68175 18.2017 4.74936L18.3625 3.76237C17.6813 3.65138 16.7979 3.84428 16.0631 4.18884C15.3441 4.52602 14.5909 5.0927 14.3744 5.87188L15.3379 6.13965ZM18.2015 4.74932C19.0217 4.88333 19.8536 4.52298 20.2939 3.82168L19.447 3.28998C19.2282 3.63854 18.8001 3.83386 18.3628 3.76241L18.2015 4.74932ZM20.2938 3.82185C20.5065 3.48339 20.931 3.1923 21.4494 3.04481C21.9665 2.89767 22.4934 2.91753 22.8759 3.09789L23.3024 2.19343C22.6469 1.88427 21.8604 1.88818 21.1757 2.08298C20.4922 2.27744 19.8264 2.68619 19.4471 3.2898L20.2938 3.82185ZM22.8758 3.09788C23.6272 3.45228 24.5283 3.32993 25.151 2.7816L24.4902 2.03109C24.1707 2.31238 23.6978 2.37993 23.3024 2.19344L22.8758 3.09788ZM25.151 2.78163C25.4584 2.51101 25.9561 2.34732 26.4991 2.34703C27.0421 2.34673 27.5404 2.50983 27.8492 2.78165L28.51 2.03104C27.97 1.55575 27.2116 1.34664 26.4986 1.34703C25.7857 1.34741 25.0283 1.55728 24.4902 2.03107L25.151 2.78163ZM27.8492 2.7816C28.4719 3.32996 29.3725 3.45223 30.1242 3.09794L29.6979 2.19338C29.302 2.37998 28.8294 2.31236 28.51 2.03109L27.8492 2.7816ZM30.1243 3.09792C30.492 2.92452 31.1666 2.89211 31.8671 3.04928C32.2054 3.1252 32.5217 3.23967 32.7789 3.38088C33.0406 3.52453 33.2121 3.67962 33.3015 3.82183L34.1482 3.28982C33.9373 2.95419 33.6099 2.69627 33.2601 2.50427C32.9059 2.30984 32.4981 2.16602 32.086 2.07355C31.2855 1.89392 30.3535 1.88428 29.6978 2.19341L30.1243 3.09792ZM33.3014 3.82177C33.7423 4.52367 34.5742 4.88278 35.3939 4.74937L35.2332 3.76236C34.7953 3.83364 34.3673 3.63862 34.1482 3.28988L33.3014 3.82177ZM35.3943 4.74931C35.8175 4.68008 36.491 4.80287 37.1152 5.09898C37.7558 5.40287 38.1638 5.80133 38.2578 6.13967L39.2213 5.87187C39.0076 5.10314 38.2604 4.5354 37.5438 4.19548C36.8108 3.84778 35.9252 3.64916 35.2328 3.76243L35.3943 4.74931ZM38.2578 6.13958C38.479 6.93622 39.1769 7.50682 40.001 7.60031L40.1137 6.60668C39.6754 6.55697 39.3284 6.25749 39.2213 5.87196L38.2578 6.13958ZM40.0008 7.60029C39.9302 7.59225 39.8804 7.57028 39.862 7.56164C39.8395 7.5511 39.825 7.54166 39.8202 7.53852C39.811 7.53242 39.8125 7.53239 39.8273 7.54533C39.8555 7.57003 39.9012 7.61456 39.9641 7.68194C40.088 7.81463 40.2527 8.00811 40.4358 8.24094C40.8032 8.7081 41.2223 9.30526 41.5165 9.84433L42.3943 9.36528C42.0646 8.7611 41.6099 8.11617 41.2218 7.62276C41.0272 7.37531 40.8438 7.15889 40.6952 6.99962C40.6218 6.92101 40.5502 6.84905 40.4857 6.79267C40.4542 6.76507 40.4155 6.73336 40.373 6.70518C40.3506 6.6903 40.2512 6.62233 40.1139 6.6067L40.0008 7.60029ZM41.9554 9.10481H11.044V10.1048H41.9554V9.10481ZM11.483 9.84411C11.7305 9.38994 12.2329 8.81599 12.7355 8.33675C12.9823 8.10141 13.2166 7.90078 13.402 7.76021C13.4953 7.68941 13.5692 7.63915 13.6216 7.60811C13.6975 7.56311 13.6737 7.59129 13.5944 7.6003L13.4815 6.60669C13.326 6.62436 13.1848 6.70451 13.1116 6.74792C13.0148 6.8053 12.9078 6.87988 12.7976 6.96348C12.5758 7.13172 12.3127 7.35813 12.0454 7.61305C11.5197 8.11431 10.9275 8.7737 10.6049 9.36551L11.483 9.84411ZM22.5016 22.9203L21.6267 22.436C21.449 22.7569 21.4614 23.1494 21.6588 23.4586L22.5016 22.9203ZM52.9845 33.2945L53.9737 33.148L53.9736 33.1476L52.9845 33.2945ZM49.6578 10.8874L48.6687 11.0341L48.6687 11.0342L49.6578 10.8874ZM44.0462 9.60442L43.0719 9.82993L43.2512 10.6044H44.0462V9.60442ZM40.1959 5.49252L39.308 5.95261L39.4979 6.31915L39.8911 6.44496L40.1959 5.49252ZM35.1875 2.39624L34.4671 3.08979L34.7485 3.38212L35.1541 3.39568L35.1875 2.39624ZM29.4768 0.780971L28.9797 1.64867L29.3276 1.848L29.7169 1.75172L29.4768 0.780971ZM23.523 0.780971L23.283 1.75173L23.6722 1.84799L24.0202 1.64862L23.523 0.780971ZM17.8119 2.39624L17.8456 3.39567L18.251 3.38197L18.5323 3.08978L17.8119 2.39624ZM12.8035 5.49291L13.1079 6.44545L13.5015 6.31968L13.6915 5.95276L12.8035 5.49291ZM8.95321 9.60442V10.6044H9.74832L9.92749 9.82975L8.95321 9.60442ZM3.34194 10.8874L4.3311 11.0342L4.33111 11.0341L3.34194 10.8874ZM0.0156993 33.2945L1.00478 33.4418L1.00486 33.4413L0.0156993 33.2945ZM0.379621 34.4848L1.12264 33.8155L1.12264 33.8155L0.379621 34.4848ZM52.6201 34.4848L53.3627 35.1546L53.3632 35.1541L52.6201 34.4848ZM1.55623 33.7328L0.567613 33.5824L0.392564 34.7328H1.55623V33.7328ZM5.03481 10.8716V9.8716H4.17546L4.04619 10.7212L5.03481 10.8716ZM47.965 10.8716L48.9536 10.7212L48.8243 9.8716H47.965V10.8716ZM51.4435 33.7328V34.7328H52.6072L52.4321 33.5824L51.4435 33.7328ZM28.1589 19.617C29.4528 19.617 30.7128 20.3075 31.6969 21.1903C32.1796 21.6233 32.5629 22.074 32.8177 22.4479C32.9455 22.6355 33.0311 22.7893 33.081 22.8997C33.1425 23.0361 33.1139 23.0275 33.1139 22.9203H35.1139C35.1139 22.5979 35.0016 22.2935 34.9038 22.0769C34.7943 21.8342 34.645 21.5779 34.4704 21.3217C34.1204 20.808 33.629 20.2367 33.0324 19.7015C31.8578 18.6479 30.1403 17.617 28.1589 17.617L28.1589 19.617ZM33.1139 22.9203C33.1139 22.8016 33.1493 22.7769 33.0963 22.8837C33.0538 22.9695 32.9763 23.0954 32.8538 23.2533C32.6099 23.5678 32.2362 23.9474 31.7575 24.3132C30.7906 25.0521 29.5102 25.6498 28.1589 25.6498V27.6498C30.0829 27.6498 31.78 26.8131 32.9718 25.9024C33.5725 25.4434 34.0734 24.9443 34.4343 24.4789C34.6143 24.2468 34.7716 24.0074 34.8885 23.7716C34.9949 23.5568 35.1139 23.2541 35.1139 22.9203H33.1139ZM28.1589 25.6498C26.8968 25.6498 25.7185 24.9207 24.7822 24.052C24.3275 23.6301 23.9626 23.2053 23.7115 22.8855C23.5866 22.7264 23.4914 22.5953 23.429 22.5063C23.3978 22.4618 23.3749 22.4281 23.3607 22.4067C23.3536 22.3961 23.3486 22.3885 23.3459 22.3843C23.3445 22.3822 23.3437 22.381 23.3434 22.3806C23.3433 22.3804 23.3433 22.3804 23.3435 22.3806C23.3435 22.3807 23.3437 22.3809 23.3438 22.3811C23.3439 22.3813 23.344 22.3815 23.3441 22.3815C23.3442 22.3818 23.3444 22.382 22.5016 22.9203C21.6588 23.4586 21.659 23.4588 21.6592 23.4591C21.6592 23.4592 21.6594 23.4595 21.6596 23.4598C21.6599 23.4602 21.6602 23.4607 21.6606 23.4613C21.6613 23.4624 21.6622 23.4638 21.6632 23.4654C21.6653 23.4686 21.6679 23.4727 21.6712 23.4777C21.6776 23.4876 21.6865 23.501 21.6976 23.5176C21.7198 23.5509 21.7513 23.5972 21.7917 23.6548C21.8723 23.7697 21.9888 23.93 22.1384 24.1205C22.4363 24.5 22.8716 25.0076 23.4219 25.5181C24.4953 26.5141 26.1457 27.6498 28.1589 27.6498V25.6498ZM28.1589 17.617C26.0909 17.617 24.426 18.9569 23.3712 20.086C22.8246 20.6713 22.3928 21.2523 22.0982 21.6854C21.9502 21.9029 21.8351 22.0855 21.7558 22.2159C21.7162 22.2812 21.6853 22.3336 21.6637 22.3709C21.6529 22.3896 21.6444 22.4046 21.6382 22.4155C21.6351 22.421 21.6326 22.4254 21.6307 22.4288C21.6297 22.4306 21.6289 22.432 21.6282 22.4332C21.6279 22.4338 21.6276 22.4343 21.6273 22.4348C21.6272 22.435 21.6271 22.4353 21.627 22.4354C21.6268 22.4357 21.6267 22.436 22.5016 22.9203C23.3765 23.4046 23.3764 23.4048 23.3762 23.405C23.3762 23.4051 23.3761 23.4053 23.3761 23.4054C23.3759 23.4056 23.3759 23.4057 23.3758 23.4058C23.3757 23.4059 23.3758 23.4058 23.376 23.4055C23.3764 23.4048 23.3773 23.4031 23.3789 23.4004C23.3819 23.395 23.3871 23.3858 23.3946 23.373C23.4094 23.3473 23.433 23.3072 23.4648 23.2548C23.5286 23.1499 23.6252 22.9964 23.7517 22.8104C24.006 22.4366 24.3745 21.9418 24.8328 21.4513C25.7879 20.4288 26.9516 19.617 28.1589 19.617L28.1589 17.617ZM53.9736 33.1476L50.647 10.7405L48.6687 11.0342L51.9953 33.4413L53.9736 33.1476ZM50.647 10.7406C50.461 9.48675 49.3606 8.60442 48.1209 8.60442V10.6044C48.4266 10.6044 48.6363 10.8163 48.6687 11.0341L50.647 10.7406ZM48.1209 8.60442H44.0462V10.6044H48.1209V8.60442ZM45.0204 9.37891C44.1721 5.71435 40.8433 4.64973 40.5006 4.54008L39.8911 6.44496C40.1711 6.53454 42.4871 7.30349 43.0719 9.82993L45.0204 9.37891ZM41.0837 5.03242C39.2795 1.5506 35.59 1.40913 35.2209 1.39679L35.1541 3.39568C35.4603 3.40591 38.0569 3.53838 39.308 5.95261L41.0837 5.03242ZM35.9079 1.70268C33.711 -0.579281 30.7829 -0.572245 29.2366 -0.189773L29.7169 1.75172C30.845 1.47267 32.935 1.49839 34.4671 3.08979L35.9079 1.70268ZM29.9739 -0.0867255C28.5893 -0.879916 25.7862 -1.66838 23.0258 -0.0866825L24.0202 1.64862C25.9673 0.532896 27.9842 1.07836 28.9797 1.64867L29.9739 -0.0867255ZM23.763 -0.18979C22.2164 -0.572237 19.2879 -0.578883 17.0914 1.70269L18.5323 3.08978C20.064 1.49877 22.1544 1.47266 23.283 1.75173L23.763 -0.18979ZM17.7781 1.39681C17.4136 1.40912 13.719 1.55039 11.9155 5.03305L13.6915 5.95276C14.9417 3.5386 17.5421 3.40592 17.8456 3.39567L17.7781 1.39681ZM12.4991 4.54036C12.1497 4.65203 8.82494 5.72117 7.97893 9.37908L9.92749 9.82975C10.5105 7.30912 12.8241 6.53613 13.1079 6.44545L12.4991 4.54036ZM8.95321 8.60442H4.8789V10.6044H8.95321V8.60442ZM4.8789 8.60442C3.63919 8.60442 2.53881 9.48675 2.35277 10.7406L4.33111 11.0341C4.36343 10.8163 4.57316 10.6044 4.8789 10.6044V8.60442ZM2.35278 10.7405L-0.973461 33.1476L1.00486 33.4413L4.3311 11.0342L2.35278 10.7405ZM-0.973383 33.1471C-1.08217 33.8773 -0.853836 34.6096 -0.363395 35.1541L1.12264 33.8155C1.02352 33.7055 0.985794 33.5693 1.00478 33.4418L-0.973383 33.1471ZM-0.363395 35.1541C0.125882 35.6973 0.826624 36 1.55266 36V34C1.3786 34 1.22291 33.9269 1.12264 33.8155L-0.363395 35.1541ZM1.55266 36H51.4471V34H1.55266V36ZM51.4471 36C52.1735 36 52.8735 35.697 53.3627 35.1546L51.8776 33.815C51.7765 33.9271 51.6208 34 51.4471 34V36ZM53.3632 35.1541C53.8536 34.6096 54.0817 33.8776 53.9737 33.148L51.9953 33.4409C52.0142 33.569 51.9762 33.7055 51.8771 33.8155L53.3632 35.1541ZM2.54485 33.8832L6.02343 11.022L4.04619 10.7212L0.567613 33.5824L2.54485 33.8832ZM5.03481 11.8716H47.965V9.8716H5.03481V11.8716ZM46.9763 11.022L50.4549 33.8832L52.4321 33.5824L48.9536 10.7212L46.9763 11.022ZM51.4435 32.7328H1.55623V34.7328H51.4435V32.7328Z"></path>
  </symbol>

  <symbol id="icon-walks" width="47" height="39" viewBox="0 0 47 39" xmlns="http://www.w3.org/2000/svg">
    <path d="M46.5772 4.79323C46.2458 4.52814 45.7814 4.4649 45.3651 4.59025C43.8165 5.05628 42.6513 5.98454 42.091 6.50006C41.0564 6.20515 39.9379 6.20506 38.9032 6.50006C38.3361 5.97831 37.1494 5.03391 35.5728 4.57354C35.1028 4.43649 34.5932 4.57252 34.273 4.92917C34.0014 5.23168 33.9327 5.64943 34.0645 6.02363C34.4577 7.13981 35.0943 8.89817 35.3174 9.51332C35.2183 9.82001 35.158 10.1417 35.1375 10.4728C35.118 10.7903 35.1238 11.0946 35.1518 11.386L34.7116 12.2518C34.4233 12.8192 33.8462 13.2129 33.1763 13.2985C30.74 13.6102 25.9977 14.2394 21.6087 14.9531C15.9279 15.8767 13.6774 16.4849 12.712 16.8586C11.8883 15.6977 10.7151 14.7523 9.34989 14.16C7.27648 13.2605 3.80762 11.3044 3.87089 8.30883C3.92824 5.59817 5.03351 3.99692 5.9506 3.13088C6.34218 2.76114 6.54768 2.25222 6.51424 1.73456C6.48081 1.21598 6.21075 0.732305 5.77313 0.407505C4.92671 -0.220646 3.71724 -0.111079 3.01956 0.65663C0.697413 3.21185 0.141275 6.75039 0.0163539 8.63224C-0.109468 10.5292 0.491213 12.2843 1.80188 13.8489C2.74179 14.9708 4.02473 15.9707 5.61497 16.8206C7.15687 17.6446 8.27124 18.9597 8.75301 20.5238C8.79535 20.6613 8.81537 20.8039 8.81237 20.9469L8.79705 21.6698C8.78955 22.0234 8.75932 22.3762 8.70636 22.7265L8.17795 26.2247C7.97065 27.5974 7.02113 28.7517 5.69225 29.3855C4.76885 29.8259 4.24114 30.7634 4.37918 31.718L5.34491 38.3962C5.39486 38.7419 5.71297 39 6.08903 39H10.0613C10.2218 39 10.3821 38.9604 10.5129 38.8741C10.7799 38.698 10.8879 38.3944 10.8049 38.1172L10.7621 37.974C10.4502 36.9322 9.59603 36.1345 8.51028 35.8277L8.3236 34.399C8.27124 33.9984 8.51648 33.6154 8.92067 33.4662L12.7157 32.0662C12.7151 32.1035 12.7137 32.1404 12.7109 32.1762C12.7106 32.1805 12.7103 32.1849 12.71 32.1892C12.6726 32.8496 12.6446 33.4444 12.6267 33.9572C12.602 34.6613 12.8921 35.343 13.4291 35.8411L16.6144 38.7959C16.7552 38.9266 16.9461 38.9999 17.1452 38.9999H21.7506C22.1468 38.9999 22.4809 38.6992 22.5022 38.3322C22.5766 37.0554 21.6076 35.9501 20.2432 35.7583L18.9262 35.5733L18.3821 34.7803C18.1148 34.3905 18.1235 33.8923 18.4044 33.5107L21.9965 28.6313C23.0882 28.3186 27.6923 27.0839 30.3922 27.6688C30.4277 27.9985 30.5258 28.3211 30.6839 28.6225L35.9208 38.6082C36.0464 38.8478 36.3086 38.9999 36.5959 38.9999H40.1578C40.3157 38.9999 40.4732 38.9619 40.6029 38.8786C40.8688 38.7079 40.9815 38.4105 40.9071 38.1347L40.6653 37.2375C40.4319 36.3715 39.7349 35.7072 38.8561 35.4475L39.7283 28.4093C39.7647 28.1155 39.8588 27.8309 40.0066 27.569C40.5489 26.6076 41.6143 24.7596 42.6485 23.1994C43.4613 21.9733 43.9842 20.5636 44.1606 19.1225C44.429 16.93 44.9553 14.1295 45.0857 13.448C45.6637 12.6804 45.9299 11.6644 45.8565 10.4727C45.8361 10.1416 45.7757 9.81992 45.6767 9.51323C45.9017 8.89297 46.5471 7.11001 46.9395 5.9954C47.0913 5.56428 46.9527 5.0937 46.5772 4.79323ZM8.36584 32.172C7.32903 32.5545 6.69872 33.5392 6.83305 34.5666L7.0841 36.488C7.12584 36.8071 7.3975 37.0583 7.74163 37.0958C8.17785 37.1434 8.56873 37.3282 8.85981 37.607H6.74577L5.86742 31.5327C5.81357 31.1608 6.01916 30.7956 6.37881 30.624C8.04623 29.8285 9.23117 28.3731 9.61044 26.6826C10.9614 28.1605 11.9247 29.5571 12.3932 30.6861L8.36584 32.172ZM41.3696 22.4698C40.3123 24.0646 39.229 25.9433 38.6774 26.9212C38.4426 27.3373 38.2944 27.7845 38.2366 28.2502L37.8251 31.5715L36.9185 27.4081C36.8326 27.0136 36.9307 26.6014 37.1877 26.2772L39.256 23.6678C40.3993 22.2255 40.9195 20.4504 40.7209 18.6695C40.6782 18.2869 40.3091 18.009 39.8969 18.0485C39.4845 18.088 39.1847 18.4303 39.2274 18.8128C39.3876 20.2486 38.9682 21.6798 38.0464 22.8427L35.9781 25.4521C35.471 26.0919 35.2773 26.9053 35.4467 27.6839L37.2932 36.1625C37.364 36.4874 37.6718 36.721 38.0291 36.721C38.5881 36.721 39.0733 37.0724 39.2089 37.5755L39.2175 37.6074H37.0656L32.034 28.0131C31.9059 27.7688 31.8555 27.497 31.8883 27.227L32.6328 21.0981C32.6793 20.7159 32.3829 20.3712 31.9709 20.3282C31.5583 20.2853 31.1873 20.56 31.1409 20.9422L30.4939 26.2686C28.0435 25.8384 24.6758 26.5041 22.7632 26.977C22.9182 26.0429 22.6649 25.0678 22.0093 24.2823L20.9124 22.968C20.6585 22.6639 20.1871 22.6082 19.8592 22.8437C19.5313 23.0791 19.4713 23.5166 19.7251 23.8207L20.8221 25.135C21.4355 25.87 21.468 26.8796 20.9029 27.6473L17.1645 32.7253C16.5444 33.5675 16.5251 34.6677 17.1154 35.5281L17.8427 36.5883C17.9592 36.7581 18.1492 36.8728 18.3636 36.903L20.0182 37.1355C20.3574 37.1831 20.6406 37.3604 20.8153 37.6072H17.4561L14.4908 34.8564C14.2486 34.6318 14.1162 34.3206 14.1273 34.0026C14.1448 33.5005 14.1724 32.9172 14.2091 32.2685C14.3755 30.039 12.0268 27.1494 10.6109 25.6244C10.3614 25.3556 10.228 25.0136 10.2355 24.6612L10.3202 20.654C10.3217 20.5847 10.1966 20.1412 10.1966 20.1412C9.60714 18.2272 8.24622 16.6194 6.3644 15.6138C2.1283 13.3499 1.38908 10.6142 1.5149 8.71776C1.77916 4.73371 3.29022 2.51954 4.16747 1.55433C4.33634 1.36863 4.62962 1.34254 4.83502 1.49509C4.98076 1.60327 5.01059 1.74366 5.01529 1.81776C5.02 1.8912 5.00869 2.03271 4.87936 2.15481C3.77139 3.20099 2.4366 5.11311 2.36953 8.28153C2.28955 12.0647 6.30995 14.3789 8.71357 15.4216C10.0017 15.9803 11.08 16.9238 11.7498 18.0782C11.7498 18.0782 11.7848 18.1383 11.7917 18.1489C11.9022 18.3198 12.087 18.439 12.2982 18.4756C12.5126 18.5128 12.7346 18.4614 12.9051 18.3351C13.6866 17.7564 19.5181 16.4514 33.3817 14.6781C34.3741 14.5512 35.243 14.0428 35.7953 13.2886C35.9344 13.4966 36.0935 13.6892 36.2746 13.8629C37.035 14.5922 38.1249 14.9753 39.4327 14.9753C39.4815 14.9753 41.4013 14.9738 41.4013 14.9738C41.4056 14.9738 41.4099 14.9738 41.4142 14.9737C42.1202 14.9889 42.765 14.8939 43.3327 14.6959C43.1189 15.8967 42.8418 17.552 42.6687 18.9652C42.5171 20.2047 42.0678 21.4165 41.3696 22.4698ZM44.1803 9.27135C44.119 9.42576 44.1179 9.59745 44.1814 9.7552C44.281 10.0029 44.3403 10.2711 44.3576 10.5521C44.4205 11.5742 44.1725 12.3842 43.6403 12.8947C43.1502 13.3648 42.3905 13.6019 41.4442 13.5813C41.4368 13.5811 41.4297 13.5811 41.4226 13.5811C41.4155 13.5811 39.5624 13.5795 39.5274 13.5818C38.5916 13.5976 37.8403 13.3612 37.3538 12.8947C36.8216 12.3843 36.5735 11.5743 36.6365 10.5523C36.6538 10.2714 36.7132 10.0032 36.8128 9.7553C36.8755 9.59893 36.875 9.42892 36.8153 9.27562C36.8147 9.27415 36.8142 9.27257 36.8136 9.27088C36.7421 9.07391 36.1266 7.37848 35.6694 6.09308C37.1354 6.68678 38.1075 7.74549 38.1173 7.75626C38.3285 7.99146 38.6808 8.07103 38.9852 7.95237C39.9461 7.57733 41.0482 7.57733 42.0089 7.95237C42.3119 8.07057 42.6639 7.99099 42.8756 7.75756C42.8864 7.74568 43.8587 6.68678 45.3247 6.09308C44.8671 7.37956 44.2509 9.07728 44.1803 9.27135Z" />
    <path d="M36.8136 9.27088L36.8153 9.27562C37.2561 8.125 37.2561 8.125 38.1173 7.75626C38.1075 7.74549 37.1354 6.68678 35.6694 6.09308C36.1266 7.37848 36.7421 9.07391 36.8136 9.27088Z" />
    <path d="M45.3247 6.09308C43.8587 6.68678 42.8864 7.74568 42.8756 7.75756C44.1199 8.12083 44.134 8.38967 44.1787 9.24176L44.1803 9.27135C44.2509 9.07728 44.8671 7.37956 45.3247 6.09308Z" />
    <path d="M4.16747 1.55433C3.29022 2.51954 1.77916 4.73371 1.5149 8.71776L2.36953 8.28153C2.4366 5.11311 3.77139 3.20099 4.87936 2.15481C5.00869 2.03271 5.02 1.8912 5.01529 1.81776C5.01059 1.74366 4.98076 1.60327 4.83502 1.49509C4.62962 1.34254 4.33634 1.36863 4.16747 1.55433Z" />
  </symbol>

  <symbol id="icon-veterinarians" width="41" height="43" viewBox="0 0 41 43" xmlns="http://www.w3.org/2000/svg">
    <path d="M15.0743 13.7748C14.8228 14.3679 14.6971 14.9946 14.7005 15.6378C14.7074 16.9303 15.2468 18.1561 16.2193 19.0896C17.1922 20.0233 18.4889 20.5591 19.8705 20.5983C20.9488 20.6283 22.012 20.3517 22.9137 19.8114C23.7705 20.3248 24.7728 20.6007 25.7959 20.6007C25.8495 20.6007 25.9032 20.5999 25.957 20.5984C27.3246 20.5597 28.612 20.0328 29.5821 19.1151C30.552 18.1974 31.1004 16.9876 31.1261 15.7084C31.1423 14.9084 30.9616 14.1408 30.5891 13.4271C30.2482 12.7739 27.4888 9.94428 26.5131 8.90698C26.2686 8.64711 26.9251 9.5556 26.6474 9.78406C26.3695 10.0125 25.465 9.64974 25.7093 9.90953C26.5925 10.8486 29.1009 13.433 29.3847 13.9767C29.6633 14.5104 29.7984 15.0851 29.7863 15.6848C29.7461 17.6774 28.0462 19.2856 25.9164 19.346C24.9822 19.3731 24.0619 19.0902 23.3277 18.551C23.0847 18.3726 22.7428 18.3726 22.4998 18.551C21.7656 19.0902 20.8454 19.3725 19.9111 19.346C17.7875 19.2858 16.0511 17.6195 16.0405 15.6317C16.0379 15.1495 16.1319 14.6801 16.3199 14.2366C16.7546 13.2115 17.6945 12.0524 19.4628 10.361C21.124 8.77199 23.8093 8.57786 25.7093 9.90953C26.0054 10.117 26.4254 10.0609 26.6474 9.78406C26.8693 9.50724 26.8092 9.11456 26.5131 8.90698C24.0771 7.19959 20.6341 7.4481 18.5045 9.4851C16.579 11.3268 15.5852 12.5697 15.0743 13.7748Z" />
    <path d="M19.3773 7.47567C21.0994 7.47567 22.5003 5.79885 22.5003 3.73788C22.5003 1.6769 21.0994 0 19.3773 0C17.6553 0 16.2543 1.67673 16.2543 3.73779C16.2543 5.79885 17.6553 7.47567 19.3773 7.47567ZM19.3773 1.25298C20.3437 1.25298 21.1602 2.39093 21.1602 3.73779C21.1602 5.08474 20.3437 6.22261 19.3773 6.22261C18.411 6.22261 17.5944 5.08474 17.5944 3.73779C17.5945 2.39093 18.411 1.25298 19.3773 1.25298Z" />
    <path d="M19.3773 1.25298C20.3437 1.25298 21.1602 2.39093 21.1602 3.73779C21.1602 5.08474 20.3437 6.22261 19.3773 6.22261C18.411 6.22261 17.5944 5.08474 17.5944 3.73779C17.5945 2.39093 18.411 1.25298 19.3773 1.25298Z" />
    <path d="M12.9787 11.9551C14.3684 11.9551 15.457 10.6725 15.457 9.03511C15.457 7.39772 14.3684 6.11509 12.9787 6.11509C11.589 6.11509 10.5005 7.39772 10.5005 9.03511C10.5005 10.6725 11.589 11.9551 12.9787 11.9551ZM12.9787 7.36807C13.5957 7.36807 14.1169 8.13146 14.1169 9.03511C14.1169 9.93876 13.5957 10.7022 12.9787 10.7022C12.3618 10.7022 11.8406 9.93876 11.8406 9.03511C11.8406 8.13146 12.3618 7.36807 12.9787 7.36807Z" />
    <path d="M12.9787 7.36807C13.5957 7.36807 14.1169 8.13146 14.1169 9.03511C14.1169 9.93876 13.5957 10.7022 12.9787 10.7022C12.3618 10.7022 11.8406 9.93876 11.8406 9.03511C11.8406 8.13146 12.3618 7.36807 12.9787 7.36807Z" />
    <path d="M32.5937 11.9551C33.9834 11.9551 35.072 10.6725 35.072 9.03511C35.072 7.39772 33.9834 6.11509 32.5937 6.11509C31.204 6.11509 30.1155 7.39772 30.1155 9.03511C30.1155 10.6725 31.204 11.9551 32.5937 11.9551ZM32.5937 7.36807C33.2107 7.36807 33.7319 8.13146 33.7319 9.03511C33.7319 9.93876 33.2107 10.7022 32.5937 10.7022C31.9768 10.7022 31.4556 9.93876 31.4556 9.03511C31.4556 8.13146 31.9768 7.36807 32.5937 7.36807Z" />
    <path d="M32.5937 7.36807C33.2107 7.36807 33.7319 8.13146 33.7319 9.03511C33.7319 9.93876 33.2107 10.7022 32.5937 10.7022C31.9768 10.7022 31.4556 9.93876 31.4556 9.03511C31.4556 8.13146 31.9768 7.36807 32.5937 7.36807Z" />
    <path d="M27.2188 7.47567C28.9409 7.47567 30.3419 5.79885 30.3419 3.73788C30.3419 1.6769 28.9409 0 27.2188 0C25.4968 0 24.0958 1.67673 24.0958 3.73779C24.0958 5.79885 25.4968 7.47567 27.2188 7.47567ZM27.2188 1.25298C28.1852 1.25298 29.0018 2.39093 29.0018 3.73779C29.0018 5.08474 28.1853 6.22261 27.2188 6.22261C26.2524 6.22261 25.4359 5.08474 25.4359 3.73779C25.4359 2.39093 26.2523 1.25298 27.2188 1.25298Z" />
    <path d="M27.2188 1.25298C28.1852 1.25298 29.0018 2.39093 29.0018 3.73779C29.0018 5.08474 28.1853 6.22261 27.2188 6.22261C26.2524 6.22261 25.4359 5.08474 25.4359 3.73779C25.4359 2.39093 26.2523 1.25298 27.2188 1.25298Z" />
    <path d="M39.9483 19.9384C39.269 19.3034 38.3659 18.9535 37.4052 18.9535C36.4446 18.9535 35.5413 19.3034 34.862 19.9384L30.9184 23.6255C30.26 22.9476 29.3102 22.5212 28.2559 22.5212H22.6072C22.2372 22.5212 23.3143 22.8017 23.3143 23.1477C23.3143 23.4936 22.2372 23.7741 22.6072 23.7741H28.2559C29.5002 23.7741 30.5125 24.7206 30.5125 25.884C30.5125 27.0473 29.5002 27.9938 28.2559 27.9938H22.6072C22.2372 27.9938 21.9372 28.2743 21.9372 28.6203C21.9372 28.9663 22.2372 29.2468 22.6072 29.2468H28.2559C30.2391 29.2468 31.8526 27.7383 31.8526 25.884C31.8526 25.4777 31.775 25.088 31.6332 24.7272C31.6409 24.7206 31.6489 24.7145 31.6563 24.7076L35.8096 20.8244C36.6894 20.0018 38.121 20.0018 39.0008 20.8244C39.8806 21.6471 39.8806 22.9855 39.0008 23.8081L30.6742 31.5933H22.9949C22.6249 31.5933 23.3143 31.8738 23.3143 32.2198C23.3143 32.5658 22.9443 32.8463 23.3143 32.8463H30.9518C31.1294 32.8463 31.2999 32.7803 31.4255 32.6628L39.9483 24.6941C41.3506 23.3831 41.3506 21.2497 39.9483 19.9384Z" />
    <path d="M23.4859 31.5934H20.4355C20.2592 31.5934 20.09 31.6583 19.9646 31.7742L17.8577 33.7198L12.7092 28.9061C12.6106 28.5627 12.5608 28.208 12.5608 27.8495C12.5608 25.608 14.5111 23.7844 16.9086 23.7844C16.9482 23.7844 16.9869 23.7806 17.0247 23.7744H22.9142C23.2842 23.7744 23.5842 23.4939 23.5842 23.1479C23.5842 22.8019 23.2842 22.5214 22.9142 22.5214H16.3785C16.2701 22.5214 16.168 22.546 16.0775 22.5888C13.3914 22.9582 11.3115 25.0892 11.2252 27.6822L10.6836 27.1759C10.422 26.9312 9.99768 26.9312 9.7361 27.1759L6.18599 30.4952C6.16312 30.5165 6.14302 30.5393 6.12426 30.5628L0.180915 36.7796C0.0713839 36.8941 0.0107221 37.0423 0.0104541 37.1959L1.27858e-06 42.3436C-0.000713442 42.6894 0.298308 42.9703 0.668175 42.9713L11.7102 43H11.7121C11.8898 43 12.0602 42.934 12.1859 42.8165L19.3252 36.1413C19.4509 36.0239 19.5215 35.8645 19.5215 35.6983C19.5215 35.5322 19.4509 35.3728 19.3252 35.2554L18.7175 34.6872L20.7108 32.8465H23.4862C23.8562 32.8465 24.1562 32.566 24.1562 32.22C24.1559 31.8739 23.8559 31.5934 23.4859 31.5934ZM11.4351 41.7462L1.34117 41.7199L1.34993 37.4366L6.68934 31.8517L14.3535 39.0176L11.4351 41.7462ZM15.3419 38.0934L7.64813 30.8998L10.2098 28.5047L17.9036 35.6983L15.3419 38.0934Z" />
  </symbol>

  <symbol id="icon-vk" viewBox="0 0 26 15">
    <path d="M16.138,11.51c0.956-0.309,2.18,2.04,3.483,2.939c0.978,0.681,1.727,0.534,1.727,0.534l3.473-0.05
	c0,0,1.815-0.112,0.957-1.554c-0.071-0.12-0.503-1.069-2.585-3.022c-2.177-2.043-1.882-1.712,0.739-5.244
	c1.597-2.153,2.236-3.468,2.036-4.028c-0.192-0.539-1.365-0.399-1.365-0.399L20.69,0.713c-0.381,0.001-0.704,0.119-0.851,0.515
	c-0.003,0.004-0.621,1.666-1.445,3.079c-1.741,2.989-2.436,3.148-2.724,2.961c-0.661-0.433-0.494-1.737-0.494-2.664
	c0-2.897,0.432-4.105-0.846-4.417c-0.427-0.104-0.739-0.172-1.828-0.182c-1.392-0.021-2.574,0-3.244,0.329
	c-0.445,0.223-0.786,0.712-0.579,0.74c0.26,0.035,0.843,0.16,1.155,0.586c0.401,0.552,0.389,1.789,0.389,1.789
	s0.229,3.411-0.54,3.834c-0.528,0.29-1.25-0.302-2.803-3.016C6.087,2.879,5.488,1.345,5.488,1.345S5.372,1.06,5.162,0.904
	C4.912,0.719,4.562,0.66,4.562,0.66L0.848,0.684c0,0-0.558,0.016-0.763,0.262C-0.097,1.164,0.07,1.614,0.07,1.614
	s2.909,6.881,6.203,10.347c3.02,3.182,6.452,2.971,6.452,2.971h1.555c0,0,0.469-0.054,0.709-0.312
	c0.224-0.24,0.214-0.691,0.214-0.691S15.172,11.82,16.138,11.51z" />
  </symbol>

  <symbol id="icon-fb" xmlns="http://www.w3.org/2000/svg" xmlns:xlink="http://www.w3.org/1999/xlink" x="0px" y="0px" width="12px" height="22px" viewBox="0 0 12 22" enable-background="new 0 0 12 22" xml:space="preserve">
    <path d="M12,4V0H8C5.791,0,4,1.791,4,4v4H0v4h4v10h4V12h4V8H8V4H12z" />
  </symbol>

  <symbol id="icon-insta" enable-background="new 0 0 21 21" height="21" viewBox="0 0 21 21" width="21" xmlns="http://www.w3.org/2000/svg">
    <path d="m18 0h-15c-1.65 0-3 1.35-3 3v15c0 1.65 1.35 3 3 3h15c1.65 0 3-1.35 3-3v-15c0-1.65-1.35-3-3-3zm-7.5 7c1.93 0 3.5 1.57 3.5 3.5s-1.57 3.5-3.5 3.5-3.5-1.57-3.5-3.5 1.57-3.5 3.5-3.5zm7.5 11h-15v-9h1.181c-.114.482-.181.983-.181 1.5 0 3.59 2.91 6.5 6.5 6.5s6.5-2.91 6.5-6.5c0-.517-.066-1.018-.181-1.5h1.181zm0-11h-4v-4h4z" />
  </symbol>

</svg>